<svg xmlns="http://www.w3.org/2000/svg" viewBox="0 0 640 420" role="img" aria-labelledby="t d">
  <title id="t">Схема дорог: пункты A–H</title>
  <desc id="d">Вершины — пункты A–H, рёбра — дороги между ними; протяжённости приведены в таблице условия.</desc>
  <rect width="640" height="420" fill="#ffffff"/>
  <line x1="110" y1="180" x2="230" y2="60" stroke="#64748b" stroke-width="2.5"/>
  <line x1="230" y1="60" x2="400" y2="60" stroke="#64748b" stroke-width="2.5"/>
  <line x1="400" y1="60" x2="540" y2="130" stroke="#64748b" stroke-width="2.5"/>
  <line x1="540" y1="130" x2="520" y2="320" stroke="#64748b" stroke-width="2.5"/>
  <line x1="520" y1="320" x2="300" y2="360" stroke="#64748b" stroke-width="2.5"/>
  <line x1="300" y1="360" x2="110" y2="320" stroke="#64748b" stroke-width="2.5"/>
  <line x1="110" y1="320" x2="110" y2="180" stroke="#64748b" stroke-width="2.5"/>
  <line x1="230" y1="60" x2="360" y2="180" stroke="#64748b" stroke-width="2.5"/>
  <line x1="540" y1="130" x2="360" y2="180" stroke="#64748b" stroke-width="2.5"/>
  <line x1="360" y1="180" x2="520" y2="320" stroke="#64748b" stroke-width="2.5"/>
  <circle cx="110" cy="180" r="17" fill="#ffffff" stroke="#0284c7" stroke-width="3"/>
  <text x="110" y="185" font-family="Arial, sans-serif" font-size="15" font-weight="700" fill="#1e293b" text-anchor="middle">A</text>
  <circle cx="230" cy="60" r="17" fill="#ffffff" stroke="#0284c7" stroke-width="3"/>
  <text x="230" y="65" font-family="Arial, sans-serif" font-size="15" font-weight="700" fill="#1e293b" text-anchor="middle">B</text>
  <circle cx="400" cy="60" r="17" fill="#ffffff" stroke="#0284c7" stroke-width="3"/>
  <text x="400" y="65" font-family="Arial, sans-serif" font-size="15" font-weight="700" fill="#1e293b" text-anchor="middle">C</text>
  <circle cx="540" cy="130" r="17" fill="#ffffff" stroke="#0284c7" stroke-width="3"/>
  <text x="540" y="135" font-family="Arial, sans-serif" font-size="15" font-weight="700" fill="#1e293b" text-anchor="middle">D</text>
  <circle cx="520" cy="320" r="17" fill="#ffffff" stroke="#0284c7" stroke-width="3"/>
  <text x="520" y="325" font-family="Arial, sans-serif" font-size="15" font-weight="700" fill="#1e293b" text-anchor="middle">H</text>
  <circle cx="300" cy="360" r="17" fill="#ffffff" stroke="#0284c7" stroke-width="3"/>
  <text x="300" y="365" font-family="Arial, sans-serif" font-size="15" font-weight="700" fill="#1e293b" text-anchor="middle">G</text>
  <circle cx="110" cy="320" r="17" fill="#ffffff" stroke="#0284c7" stroke-width="3"/>
  <text x="110" y="325" font-family="Arial, sans-serif" font-size="15" font-weight="700" fill="#1e293b" text-anchor="middle">F</text>
  <circle cx="360" cy="180" r="17" fill="#ffffff" stroke="#0284c7" stroke-width="3"/>
  <text x="360" y="185" font-family="Arial, sans-serif" font-size="15" font-weight="700" fill="#1e293b" text-anchor="middle">E</text>
</svg>