<svg xmlns="http://www.w3.org/2000/svg" viewBox="0 0 640 420" role="img" aria-labelledby="t d">
  <title id="t">Схема дорог: пункты A–H</title>
  <desc id="d">Вершины — пункты A–H, рёбра — дороги между ними; протяжённости приведены в таблице условия.</desc>
  <rect width="640" height="420" fill="#ffffff"/>
  <line x1="140" y1="140" x2="320" y2="60" stroke="#64748b" stroke-width="2.5"/>
  <line x1="140" y1="140" x2="320" y2="190" stroke="#64748b" stroke-width="2.5"/>
  <line x1="140" y1="140" x2="500" y2="170" stroke="#64748b" stroke-width="2.5"/>
  <line x1="320" y1="60" x2="500" y2="60" stroke="#64748b" stroke-width="2.5"/>
  <line x1="320" y1="60" x2="500" y2="170" stroke="#64748b" stroke-width="2.5"/>
  <line x1="320" y1="190" x2="500" y2="170" stroke="#64748b" stroke-width="2.5"/>
  <line x1="320" y1="190" x2="140" y2="320" stroke="#64748b" stroke-width="2.5"/>
  <line x1="500" y1="60" x2="560" y2="320" stroke="#64748b" stroke-width="2.5"/>
  <line x1="500" y1="60" x2="580" y2="340" stroke="#64748b" stroke-width="2.5"/>
  <line x1="500" y1="170" x2="560" y2="320" stroke="#64748b" stroke-width="2.5"/>
  <line x1="140" y1="320" x2="580" y2="340" stroke="#64748b" stroke-width="2.5"/>
  <line x1="560" y1="320" x2="580" y2="340" stroke="#64748b" stroke-width="2.5"/>
  <circle cx="140" cy="140" r="17" fill="#ffffff" stroke="#0284c7" stroke-width="3"/>
  <text x="140" y="145" font-family="Arial, sans-serif" font-size="15" font-weight="700" fill="#1e293b" text-anchor="middle">A</text>
  <circle cx="320" cy="60" r="17" fill="#ffffff" stroke="#0284c7" stroke-width="3"/>
  <text x="320" y="65" font-family="Arial, sans-serif" font-size="15" font-weight="700" fill="#1e293b" text-anchor="middle">B</text>
  <circle cx="320" cy="190" r="17" fill="#ffffff" stroke="#0284c7" stroke-width="3"/>
  <text x="320" y="195" font-family="Arial, sans-serif" font-size="15" font-weight="700" fill="#1e293b" text-anchor="middle">C</text>
  <circle cx="500" cy="60" r="17" fill="#ffffff" stroke="#0284c7" stroke-width="3"/>
  <text x="500" y="65" font-family="Arial, sans-serif" font-size="15" font-weight="700" fill="#1e293b" text-anchor="middle">D</text>
  <circle cx="500" cy="170" r="17" fill="#ffffff" stroke="#0284c7" stroke-width="3"/>
  <text x="500" y="175" font-family="Arial, sans-serif" font-size="15" font-weight="700" fill="#1e293b" text-anchor="middle">E</text>
  <circle cx="140" cy="320" r="17" fill="#ffffff" stroke="#0284c7" stroke-width="3"/>
  <text x="140" y="325" font-family="Arial, sans-serif" font-size="15" font-weight="700" fill="#1e293b" text-anchor="middle">F</text>
  <circle cx="560" cy="320" r="17" fill="#ffffff" stroke="#0284c7" stroke-width="3"/>
  <text x="560" y="325" font-family="Arial, sans-serif" font-size="15" font-weight="700" fill="#1e293b" text-anchor="middle">G</text>
  <circle cx="580" cy="340" r="17" fill="#ffffff" stroke="#0284c7" stroke-width="3"/>
  <text x="580" y="345" font-family="Arial, sans-serif" font-size="15" font-weight="700" fill="#1e293b" text-anchor="middle">H</text>
</svg>